<svg id="clock" xmlns="http://www.w3.org/2000/svg" width="50" height="50" viewBox="0 0 50 50">
  <g id="Сгруппировать_120" data-name="Сгруппировать 120" transform="translate(23.063 11.6)">
    <g id="Сгруппировать_119" data-name="Сгруппировать 119">
      <path id="Контур_994" data-name="Контур 994" d="M247.013,136.595l-6.971-5.229V120.716a1.937,1.937,0,0,0-3.873,0v11.619a1.933,1.933,0,0,0,.775,1.549l7.746,5.809a1.937,1.937,0,0,0,2.324-3.1Z" transform="translate(-236.169 -118.779)" fill="#999"/>
    </g>
  </g>
  <g id="Сгруппировать_122" data-name="Сгруппировать 122">
    <g id="Сгруппировать_121" data-name="Сгруппировать 121">
      <path id="Контур_995" data-name="Контур 995" d="M25,0A25,25,0,1,0,50,25,25.027,25.027,0,0,0,25,0Zm0,46.127A21.127,21.127,0,1,1,46.127,25,21.153,21.153,0,0,1,25,46.127Z" fill="#999"/>
    </g>
  </g>
</svg>
